<mxfile host="app.diagrams.net" modified="2024-01-16T16:52:40.816Z" agent="Mozilla/5.0 (Windows NT 10.0; Win64; x64) AppleWebKit/537.36 (KHTML, like Gecko) Chrome/120.0.0.0 Safari/537.36 Edg/120.0.0.0" etag="6UTtmDBH-ddtqZ0852cL" version="22.1.17" type="google">
  <diagram name="Pagina-1" id="JaMYMmhfcq974cP-2_kv">
    <mxGraphModel grid="1" page="1" gridSize="10" guides="1" tooltips="1" connect="1" arrows="1" fold="1" pageScale="1" pageWidth="827" pageHeight="1169" math="0" shadow="0">
      <root>
        <mxCell id="0" />
        <mxCell id="1" parent="0" />
        <mxCell id="KyWp66T1cl25zVcLMp07-51" value="" style="strokeWidth=1;shadow=0;dashed=0;align=center;html=1;shape=mxgraph.mockup.containers.browserWindow;rSize=0;strokeColor=#666666;strokeColor2=#008cff;strokeColor3=#c4c4c4;mainText=,;recursiveResize=0;" vertex="1" parent="1">
          <mxGeometry x="1110" y="70" width="900" height="800" as="geometry" />
        </mxCell>
        <mxCell id="KyWp66T1cl25zVcLMp07-52" value="Page 1" style="strokeWidth=1;shadow=0;dashed=0;align=center;html=1;shape=mxgraph.mockup.containers.anchor;fontSize=17;fontColor=#666666;align=left;whiteSpace=wrap;" vertex="1" parent="KyWp66T1cl25zVcLMp07-51">
          <mxGeometry x="60" y="12" width="110" height="26" as="geometry" />
        </mxCell>
        <mxCell id="KyWp66T1cl25zVcLMp07-53" value="https://www.foodexpress.it/account/login" style="strokeWidth=1;shadow=0;dashed=0;align=center;html=1;shape=mxgraph.mockup.containers.anchor;rSize=0;fontSize=17;fontColor=#666666;align=left;" vertex="1" parent="KyWp66T1cl25zVcLMp07-51">
          <mxGeometry x="130" y="60" width="250" height="26" as="geometry" />
        </mxCell>
        <mxCell id="KyWp66T1cl25zVcLMp07-54" value="" style="html=1;shadow=0;dashed=0;fillColor=#F8F9FA;strokeColor=none;fontSize=16;fontColor=#7C7C7D;align=right;spacing=15;" vertex="1" parent="KyWp66T1cl25zVcLMp07-51">
          <mxGeometry y="110" width="900" height="60" as="geometry" />
        </mxCell>
        <mxCell id="KyWp66T1cl25zVcLMp07-55" value="" style="verticalLabelPosition=bottom;shadow=0;dashed=0;align=center;html=1;verticalAlign=top;strokeWidth=1;shape=mxgraph.mockup.graphics.simpleIcon;strokeColor=#999999;" vertex="1" parent="KyWp66T1cl25zVcLMp07-54">
          <mxGeometry x="9.999999999999998" y="5" width="159.99999999999997" height="50" as="geometry" />
        </mxCell>
        <mxCell id="KyWp66T1cl25zVcLMp07-56" value="Registrati" style="strokeWidth=1;shadow=0;dashed=0;align=center;html=1;shape=mxgraph.mockup.buttons.button;strokeColor=#666666;fontColor=#ffffff;mainText=;buttonStyle=round;fontSize=17;fontStyle=1;fillColor=#FFB570;whiteSpace=wrap;" vertex="1" parent="KyWp66T1cl25zVcLMp07-54">
          <mxGeometry x="590" y="15" width="180" height="30" as="geometry" />
        </mxCell>
        <mxCell id="KyWp66T1cl25zVcLMp07-61" value="Aiuto ?" style="strokeWidth=1;shadow=0;dashed=0;align=center;html=1;shape=mxgraph.mockup.buttons.button;strokeColor=#666666;fontColor=#333333;mainText=;buttonStyle=round;fontSize=17;fontStyle=1;fillColor=#f5f5f5;whiteSpace=wrap;" vertex="1" parent="KyWp66T1cl25zVcLMp07-54">
          <mxGeometry x="780" y="15" width="110" height="30" as="geometry" />
        </mxCell>
        <mxCell id="KyWp66T1cl25zVcLMp07-12" value="" style="strokeWidth=1;shadow=0;dashed=0;align=center;html=1;shape=mxgraph.mockup.forms.rrect;rSize=0;strokeColor=#999999;fillColor=#ffffff;" vertex="1" parent="KyWp66T1cl25zVcLMp07-51">
          <mxGeometry x="300" y="180" width="280" height="420" as="geometry" />
        </mxCell>
        <mxCell id="KyWp66T1cl25zVcLMp07-13" value="Accedi" style="strokeWidth=1;shadow=0;dashed=0;align=center;html=1;shape=mxgraph.mockup.forms.anchor;fontSize=12;fontColor=#666666;align=left;resizeWidth=1;spacingLeft=0;" vertex="1" parent="KyWp66T1cl25zVcLMp07-12">
          <mxGeometry width="140" height="20" relative="1" as="geometry">
            <mxPoint x="10" y="10" as="offset" />
          </mxGeometry>
        </mxCell>
        <mxCell id="KyWp66T1cl25zVcLMp07-14" value="" style="shape=line;strokeColor=#ddeeff;strokeWidth=2;html=1;resizeWidth=1;" vertex="1" parent="KyWp66T1cl25zVcLMp07-12">
          <mxGeometry width="252.00000000000003" height="10" relative="1" as="geometry">
            <mxPoint x="10" y="30" as="offset" />
          </mxGeometry>
        </mxCell>
        <mxCell id="KyWp66T1cl25zVcLMp07-15" value="Email" style="strokeWidth=1;shadow=0;dashed=0;align=center;html=1;shape=mxgraph.mockup.forms.anchor;fontSize=12;fontColor=#666666;align=left;resizeWidth=1;spacingLeft=0;" vertex="1" parent="KyWp66T1cl25zVcLMp07-12">
          <mxGeometry width="140" height="20" relative="1" as="geometry">
            <mxPoint x="10" y="40" as="offset" />
          </mxGeometry>
        </mxCell>
        <mxCell id="KyWp66T1cl25zVcLMp07-16" value="esempio@gmail.com" style="strokeWidth=1;shadow=0;dashed=0;align=center;html=1;shape=mxgraph.mockup.forms.rrect;rSize=0;strokeColor=#999999;fontColor=#666666;align=left;spacingLeft=5;resizeWidth=1;" vertex="1" parent="KyWp66T1cl25zVcLMp07-12">
          <mxGeometry width="210" height="25" relative="1" as="geometry">
            <mxPoint x="10" y="60" as="offset" />
          </mxGeometry>
        </mxCell>
        <mxCell id="KyWp66T1cl25zVcLMp07-17" value="Password:" style="strokeWidth=1;shadow=0;dashed=0;align=center;html=1;shape=mxgraph.mockup.forms.anchor;fontSize=12;fontColor=#666666;align=left;resizeWidth=1;spacingLeft=0;" vertex="1" parent="KyWp66T1cl25zVcLMp07-12">
          <mxGeometry width="140" height="20" relative="1" as="geometry">
            <mxPoint x="10" y="95" as="offset" />
          </mxGeometry>
        </mxCell>
        <mxCell id="KyWp66T1cl25zVcLMp07-18" value="********" style="strokeWidth=1;shadow=0;dashed=0;align=center;html=1;shape=mxgraph.mockup.forms.rrect;rSize=0;strokeColor=#999999;fontColor=#666666;align=left;spacingLeft=5;resizeWidth=1;" vertex="1" parent="KyWp66T1cl25zVcLMp07-12">
          <mxGeometry width="210" height="25" relative="1" as="geometry">
            <mxPoint x="10" y="115" as="offset" />
          </mxGeometry>
        </mxCell>
        <mxCell id="KyWp66T1cl25zVcLMp07-19" value="ACCEDI" style="strokeWidth=1;shadow=0;dashed=0;align=center;html=1;shape=mxgraph.mockup.forms.rrect;rSize=5;strokeColor=none;fontColor=#ffffff;fillColor=#FFB570;fontSize=16;fontStyle=1;" vertex="1" parent="KyWp66T1cl25zVcLMp07-12">
          <mxGeometry y="1" width="110" height="49" relative="1" as="geometry">
            <mxPoint x="85" y="-240" as="offset" />
          </mxGeometry>
        </mxCell>
        <mxCell id="KyWp66T1cl25zVcLMp07-20" value="Hai dimenticato la Password?" style="strokeWidth=1;shadow=0;dashed=0;align=center;html=1;shape=mxgraph.mockup.forms.anchor;fontSize=12;fontColor=#9999ff;align=left;spacingLeft=0;fontStyle=4;resizeWidth=1;" vertex="1" parent="KyWp66T1cl25zVcLMp07-12">
          <mxGeometry y="1" width="238.00000000000003" height="20" relative="1" as="geometry">
            <mxPoint x="15" y="-270" as="offset" />
          </mxGeometry>
        </mxCell>
        <mxCell id="KyWp66T1cl25zVcLMp07-21" value="" style="shape=line;strokeColor=#ddeeff;strokeWidth=2;html=1;resizeWidth=1;" vertex="1" parent="KyWp66T1cl25zVcLMp07-12">
          <mxGeometry y="1" width="252.00000000000003" height="10" relative="1" as="geometry">
            <mxPoint x="10" y="-180" as="offset" />
          </mxGeometry>
        </mxCell>
        <mxCell id="KyWp66T1cl25zVcLMp07-22" value="Nuovo utente" style="strokeWidth=1;shadow=0;dashed=0;align=center;html=1;shape=mxgraph.mockup.forms.anchor;fontSize=12;fontColor=#666666;align=left;spacingLeft=0;resizeWidth=1;" vertex="1" parent="KyWp66T1cl25zVcLMp07-12">
          <mxGeometry y="1" width="210" height="20" relative="1" as="geometry">
            <mxPoint x="10" y="-170" as="offset" />
          </mxGeometry>
        </mxCell>
        <mxCell id="KyWp66T1cl25zVcLMp07-23" value="REGISTRATI" style="strokeWidth=1;shadow=0;dashed=0;align=center;html=1;shape=mxgraph.mockup.forms.rrect;rSize=5;strokeColor=none;fontColor=#ffffff;fillColor=#eeB570;fontSize=16;fontStyle=1;" vertex="1" parent="KyWp66T1cl25zVcLMp07-12">
          <mxGeometry y="1" width="120" height="30" relative="1" as="geometry">
            <mxPoint x="80" y="-140" as="offset" />
          </mxGeometry>
        </mxCell>
        <mxCell id="KyWp66T1cl25zVcLMp07-60" value="Creando un account accetti&amp;nbsp;&lt;a style=&quot;box-sizing: inherit; background-color: rgb(255, 255, 255); color: rgb(18, 95, 202); font-weight: 700; font-family: JETSansDigital, Arial, sans-serif; font-size: 14px; font-variant-ligatures: common-ligatures; text-align: start;&quot; target=&quot;_blank&quot; href=&quot;https://www.justeat.it/termsandconditions&quot;&gt;Termini e le condizioni d&#39;uso&lt;/a&gt;&lt;span style=&quot;color: rgb(51, 51, 51); font-family: JETSansDigital, Arial, sans-serif; font-size: 14px; font-variant-ligatures: common-ligatures; text-align: start; background-color: rgb(255, 255, 255);&quot;&gt;. &lt;/span&gt;&lt;span style=&quot;color: rgb(51, 51, 51); font-family: JETSansDigital, Arial, sans-serif; font-variant-ligatures: common-ligatures; text-align: start; background-color: rgb(255, 255, 255);&quot;&gt;&lt;font style=&quot;font-size: 12px;&quot;&gt;Leggi la nostra informativa sulla&lt;/font&gt;&lt;/span&gt;&lt;span style=&quot;color: rgb(51, 51, 51); font-family: JETSansDigital, Arial, sans-serif; font-size: 14px; font-variant-ligatures: common-ligatures; text-align: start; background-color: rgb(255, 255, 255);&quot;&gt;&amp;nbsp;&lt;/span&gt;&lt;a style=&quot;box-sizing: inherit; background-color: rgb(255, 255, 255); color: rgb(18, 95, 202); font-weight: 700; font-family: JETSansDigital, Arial, sans-serif; font-size: 14px; font-variant-ligatures: common-ligatures; text-align: start;&quot; target=&quot;_blank&quot; href=&quot;https://www.justeat.it/privacypolicy&quot;&gt;Privacy&lt;/a&gt;&lt;span style=&quot;color: rgb(51, 51, 51); font-family: JETSansDigital, Arial, sans-serif; font-size: 14px; font-variant-ligatures: common-ligatures; text-align: start; background-color: rgb(255, 255, 255);&quot;&gt;&amp;nbsp;&lt;/span&gt;&lt;span style=&quot;color: rgb(51, 51, 51); font-family: JETSansDigital, Arial, sans-serif; font-variant-ligatures: common-ligatures; text-align: start; background-color: rgb(255, 255, 255);&quot;&gt;&lt;font style=&quot;font-size: 12px;&quot;&gt;e sui&lt;/font&gt;&lt;/span&gt;&lt;span style=&quot;color: rgb(51, 51, 51); font-family: JETSansDigital, Arial, sans-serif; font-size: 14px; font-variant-ligatures: common-ligatures; text-align: start; background-color: rgb(255, 255, 255);&quot;&gt;&amp;nbsp;&lt;/span&gt;&lt;a style=&quot;box-sizing: inherit; background-color: rgb(255, 255, 255); color: rgb(18, 95, 202); font-weight: 700; font-family: JETSansDigital, Arial, sans-serif; font-size: 14px; font-variant-ligatures: common-ligatures; text-align: start;&quot; target=&quot;_blank&quot; href=&quot;https://www.justeat.it/cookies-policy&quot;&gt;Cookie&lt;/a&gt;&lt;span style=&quot;color: rgb(51, 51, 51); font-family: JETSansDigital, Arial, sans-serif; font-size: 14px; font-variant-ligatures: common-ligatures; text-align: start; background-color: rgb(255, 255, 255);&quot;&gt;.&lt;/span&gt;" style="text;html=1;strokeColor=none;fillColor=none;align=center;verticalAlign=middle;whiteSpace=wrap;rounded=0;" vertex="1" parent="KyWp66T1cl25zVcLMp07-12">
          <mxGeometry y="300.00000000000006" width="280" height="90" as="geometry" />
        </mxCell>
        <mxCell id="KyWp66T1cl25zVcLMp07-62" value="" style="strokeWidth=1;shadow=0;dashed=0;align=center;html=1;shape=mxgraph.mockup.containers.browserWindow;rSize=0;strokeColor=#666666;strokeColor2=#008cff;strokeColor3=#c4c4c4;mainText=,;recursiveResize=0;" vertex="1" parent="1">
          <mxGeometry x="2080" y="70" width="900" height="800" as="geometry" />
        </mxCell>
        <mxCell id="KyWp66T1cl25zVcLMp07-63" value="Page 1" style="strokeWidth=1;shadow=0;dashed=0;align=center;html=1;shape=mxgraph.mockup.containers.anchor;fontSize=17;fontColor=#666666;align=left;whiteSpace=wrap;" vertex="1" parent="KyWp66T1cl25zVcLMp07-62">
          <mxGeometry x="60" y="12" width="110" height="26" as="geometry" />
        </mxCell>
        <mxCell id="KyWp66T1cl25zVcLMp07-64" value="https://www.foodexpress.it/account/register" style="strokeWidth=1;shadow=0;dashed=0;align=center;html=1;shape=mxgraph.mockup.containers.anchor;rSize=0;fontSize=17;fontColor=#666666;align=left;" vertex="1" parent="KyWp66T1cl25zVcLMp07-62">
          <mxGeometry x="130" y="60" width="250" height="26" as="geometry" />
        </mxCell>
        <mxCell id="KyWp66T1cl25zVcLMp07-65" value="" style="html=1;shadow=0;dashed=0;fillColor=#F8F9FA;strokeColor=none;fontSize=16;fontColor=#7C7C7D;align=right;spacing=15;" vertex="1" parent="KyWp66T1cl25zVcLMp07-62">
          <mxGeometry y="110" width="900" height="60" as="geometry" />
        </mxCell>
        <mxCell id="KyWp66T1cl25zVcLMp07-66" value="" style="verticalLabelPosition=bottom;shadow=0;dashed=0;align=center;html=1;verticalAlign=top;strokeWidth=1;shape=mxgraph.mockup.graphics.simpleIcon;strokeColor=#999999;" vertex="1" parent="KyWp66T1cl25zVcLMp07-65">
          <mxGeometry x="9.999999999999998" y="5" width="159.99999999999997" height="50" as="geometry" />
        </mxCell>
        <mxCell id="KyWp66T1cl25zVcLMp07-68" value="Aiuto ?" style="strokeWidth=1;shadow=0;dashed=0;align=center;html=1;shape=mxgraph.mockup.buttons.button;strokeColor=#666666;fontColor=#333333;mainText=;buttonStyle=round;fontSize=17;fontStyle=1;fillColor=#f5f5f5;whiteSpace=wrap;" vertex="1" parent="KyWp66T1cl25zVcLMp07-65">
          <mxGeometry x="780" y="15" width="110" height="30" as="geometry" />
        </mxCell>
        <mxCell id="KyWp66T1cl25zVcLMp07-69" value="" style="strokeWidth=1;shadow=0;dashed=0;align=center;html=1;shape=mxgraph.mockup.forms.rrect;rSize=0;strokeColor=#999999;fillColor=#ffffff;" vertex="1" parent="KyWp66T1cl25zVcLMp07-62">
          <mxGeometry x="310" y="190" width="280" height="420" as="geometry" />
        </mxCell>
        <mxCell id="KyWp66T1cl25zVcLMp07-70" value="Registrati" style="strokeWidth=1;shadow=0;dashed=0;align=center;html=1;shape=mxgraph.mockup.forms.anchor;fontSize=12;fontColor=#666666;align=left;resizeWidth=1;spacingLeft=0;" vertex="1" parent="KyWp66T1cl25zVcLMp07-69">
          <mxGeometry width="140" height="20" relative="1" as="geometry">
            <mxPoint x="10" y="10" as="offset" />
          </mxGeometry>
        </mxCell>
        <mxCell id="KyWp66T1cl25zVcLMp07-71" value="" style="shape=line;strokeColor=#ddeeff;strokeWidth=2;html=1;resizeWidth=1;" vertex="1" parent="KyWp66T1cl25zVcLMp07-69">
          <mxGeometry width="252.00000000000003" height="10" relative="1" as="geometry">
            <mxPoint x="10" y="30" as="offset" />
          </mxGeometry>
        </mxCell>
        <mxCell id="KyWp66T1cl25zVcLMp07-72" value="Email" style="strokeWidth=1;shadow=0;dashed=0;align=center;html=1;shape=mxgraph.mockup.forms.anchor;fontSize=12;fontColor=#666666;align=left;resizeWidth=1;spacingLeft=0;" vertex="1" parent="KyWp66T1cl25zVcLMp07-69">
          <mxGeometry width="140" height="20" relative="1" as="geometry">
            <mxPoint x="10" y="40" as="offset" />
          </mxGeometry>
        </mxCell>
        <mxCell id="KyWp66T1cl25zVcLMp07-73" value="esempio@gmail.com" style="strokeWidth=1;shadow=0;dashed=0;align=center;html=1;shape=mxgraph.mockup.forms.rrect;rSize=0;strokeColor=#999999;fontColor=#666666;align=left;spacingLeft=5;resizeWidth=1;" vertex="1" parent="KyWp66T1cl25zVcLMp07-69">
          <mxGeometry width="210" height="25" relative="1" as="geometry">
            <mxPoint x="10" y="60" as="offset" />
          </mxGeometry>
        </mxCell>
        <mxCell id="KyWp66T1cl25zVcLMp07-74" value="Password:" style="strokeWidth=1;shadow=0;dashed=0;align=center;html=1;shape=mxgraph.mockup.forms.anchor;fontSize=12;fontColor=#666666;align=left;resizeWidth=1;spacingLeft=0;" vertex="1" parent="KyWp66T1cl25zVcLMp07-69">
          <mxGeometry width="140" height="20" relative="1" as="geometry">
            <mxPoint x="10" y="95" as="offset" />
          </mxGeometry>
        </mxCell>
        <mxCell id="KyWp66T1cl25zVcLMp07-75" value="********" style="strokeWidth=1;shadow=0;dashed=0;align=center;html=1;shape=mxgraph.mockup.forms.rrect;rSize=0;strokeColor=#999999;fontColor=#666666;align=left;spacingLeft=5;resizeWidth=1;" vertex="1" parent="KyWp66T1cl25zVcLMp07-69">
          <mxGeometry width="210" height="25" relative="1" as="geometry">
            <mxPoint x="10" y="115" as="offset" />
          </mxGeometry>
        </mxCell>
        <mxCell id="KyWp66T1cl25zVcLMp07-76" value="Crea un account" style="strokeWidth=1;shadow=0;dashed=0;align=center;html=1;shape=mxgraph.mockup.forms.rrect;rSize=5;strokeColor=#d79b00;fillColor=#ffe6cc;fontSize=16;fontStyle=1;" vertex="1" parent="KyWp66T1cl25zVcLMp07-69">
          <mxGeometry y="1" width="160" height="49" relative="1" as="geometry">
            <mxPoint x="55" y="-240" as="offset" />
          </mxGeometry>
        </mxCell>
        <mxCell id="KyWp66T1cl25zVcLMp07-77" value="Hai già un account?" style="strokeWidth=1;shadow=0;dashed=0;align=center;html=1;shape=mxgraph.mockup.forms.anchor;fontSize=12;fontColor=#9999ff;align=left;spacingLeft=0;fontStyle=4;resizeWidth=1;" vertex="1" parent="KyWp66T1cl25zVcLMp07-69">
          <mxGeometry y="1" width="238.00000000000003" height="20" relative="1" as="geometry">
            <mxPoint x="15" y="-270" as="offset" />
          </mxGeometry>
        </mxCell>
        <mxCell id="KyWp66T1cl25zVcLMp07-78" value="" style="shape=line;strokeColor=#ddeeff;strokeWidth=2;html=1;resizeWidth=1;" vertex="1" parent="KyWp66T1cl25zVcLMp07-69">
          <mxGeometry y="1" width="252.00000000000003" height="10" relative="1" as="geometry">
            <mxPoint x="10" y="-180" as="offset" />
          </mxGeometry>
        </mxCell>
        <mxCell id="KyWp66T1cl25zVcLMp07-81" value="Creando un account accetti&amp;nbsp;&lt;a href=&quot;https://www.justeat.it/termsandconditions&quot; target=&quot;_blank&quot; style=&quot;box-sizing: inherit; background-color: rgb(255, 255, 255); color: rgb(18, 95, 202); font-weight: 700; font-family: JETSansDigital, Arial, sans-serif; font-size: 14px; font-variant-ligatures: common-ligatures; text-align: start;&quot;&gt;Termini e le condizioni d&#39;uso&lt;/a&gt;&lt;span style=&quot;color: rgb(51, 51, 51); font-family: JETSansDigital, Arial, sans-serif; font-size: 14px; font-variant-ligatures: common-ligatures; text-align: start; background-color: rgb(255, 255, 255);&quot;&gt;. &lt;/span&gt;&lt;span style=&quot;color: rgb(51, 51, 51); font-family: JETSansDigital, Arial, sans-serif; font-variant-ligatures: common-ligatures; text-align: start; background-color: rgb(255, 255, 255);&quot;&gt;&lt;font style=&quot;font-size: 12px;&quot;&gt;Leggi la nostra informativa sulla&lt;/font&gt;&lt;/span&gt;&lt;span style=&quot;color: rgb(51, 51, 51); font-family: JETSansDigital, Arial, sans-serif; font-size: 14px; font-variant-ligatures: common-ligatures; text-align: start; background-color: rgb(255, 255, 255);&quot;&gt;&amp;nbsp;&lt;/span&gt;&lt;a href=&quot;https://www.justeat.it/privacypolicy&quot; target=&quot;_blank&quot; style=&quot;box-sizing: inherit; background-color: rgb(255, 255, 255); color: rgb(18, 95, 202); font-weight: 700; font-family: JETSansDigital, Arial, sans-serif; font-size: 14px; font-variant-ligatures: common-ligatures; text-align: start;&quot;&gt;Privacy&lt;/a&gt;&lt;span style=&quot;color: rgb(51, 51, 51); font-family: JETSansDigital, Arial, sans-serif; font-size: 14px; font-variant-ligatures: common-ligatures; text-align: start; background-color: rgb(255, 255, 255);&quot;&gt;&amp;nbsp;&lt;/span&gt;&lt;span style=&quot;color: rgb(51, 51, 51); font-family: JETSansDigital, Arial, sans-serif; font-variant-ligatures: common-ligatures; text-align: start; background-color: rgb(255, 255, 255);&quot;&gt;&lt;font style=&quot;font-size: 12px;&quot;&gt;e sui&lt;/font&gt;&lt;/span&gt;&lt;span style=&quot;color: rgb(51, 51, 51); font-family: JETSansDigital, Arial, sans-serif; font-size: 14px; font-variant-ligatures: common-ligatures; text-align: start; background-color: rgb(255, 255, 255);&quot;&gt;&amp;nbsp;&lt;/span&gt;&lt;a href=&quot;https://www.justeat.it/cookies-policy&quot; target=&quot;_blank&quot; style=&quot;box-sizing: inherit; background-color: rgb(255, 255, 255); color: rgb(18, 95, 202); font-weight: 700; font-family: JETSansDigital, Arial, sans-serif; font-size: 14px; font-variant-ligatures: common-ligatures; text-align: start;&quot;&gt;Cookie&lt;/a&gt;&lt;span style=&quot;color: rgb(51, 51, 51); font-family: JETSansDigital, Arial, sans-serif; font-size: 14px; font-variant-ligatures: common-ligatures; text-align: start; background-color: rgb(255, 255, 255);&quot;&gt;.&lt;/span&gt;" style="text;html=1;strokeColor=none;fillColor=none;align=center;verticalAlign=middle;whiteSpace=wrap;rounded=0;" vertex="1" parent="KyWp66T1cl25zVcLMp07-69">
          <mxGeometry y="300.00000000000006" width="280" height="90" as="geometry" />
        </mxCell>
        <mxCell id="xIt8Uq5XgzsXdQ8LZf2V-6" value="Click" style="strokeWidth=1;shadow=0;dashed=0;align=center;html=1;shape=mxgraph.mockup.text.callout;linkText=;textSize=17;textColor=#666666;callDir=NE;callStyle=line;fontSize=17;fontColor=#666666;align=right;verticalAlign=top;strokeColor=#666666;" vertex="1" parent="KyWp66T1cl25zVcLMp07-62">
          <mxGeometry x="-70" y="330" width="400" height="180" as="geometry" />
        </mxCell>
        <mxCell id="KyWp66T1cl25zVcLMp07-31" value="" style="strokeWidth=1;shadow=0;dashed=0;align=center;html=1;shape=mxgraph.mockup.containers.browserWindow;rSize=0;strokeColor=#666666;strokeColor2=#008cff;strokeColor3=#c4c4c4;mainText=,;recursiveResize=0;" vertex="1" parent="1">
          <mxGeometry x="30" y="200" width="900" height="1501" as="geometry" />
        </mxCell>
        <mxCell id="KyWp66T1cl25zVcLMp07-32" value="Page 1" style="strokeWidth=1;shadow=0;dashed=0;align=center;html=1;shape=mxgraph.mockup.containers.anchor;fontSize=17;fontColor=#666666;align=left;whiteSpace=wrap;" vertex="1" parent="KyWp66T1cl25zVcLMp07-31">
          <mxGeometry x="60" y="12" width="110" height="26" as="geometry" />
        </mxCell>
        <mxCell id="KyWp66T1cl25zVcLMp07-33" value="https://www.foodyjet.it" style="strokeWidth=1;shadow=0;dashed=0;align=center;html=1;shape=mxgraph.mockup.containers.anchor;rSize=0;fontSize=17;fontColor=#666666;align=left;" vertex="1" parent="KyWp66T1cl25zVcLMp07-31">
          <mxGeometry x="130" y="60" width="250" height="26" as="geometry" />
        </mxCell>
        <mxCell id="KyWp66T1cl25zVcLMp07-40" value="" style="html=1;shadow=0;dashed=0;fillColor=#F8F9FA;strokeColor=none;fontSize=16;fontColor=#7C7C7D;align=right;spacing=15;" vertex="1" parent="KyWp66T1cl25zVcLMp07-31">
          <mxGeometry y="110" width="900" height="60" as="geometry" />
        </mxCell>
        <mxCell id="KyWp66T1cl25zVcLMp07-49" value="Accedi" style="strokeWidth=1;shadow=0;dashed=0;align=center;html=1;shape=mxgraph.mockup.buttons.button;strokeColor=#666666;fontColor=#ffffff;mainText=;buttonStyle=round;fontSize=17;fontStyle=1;fillColor=#FFB570;whiteSpace=wrap;" vertex="1" parent="KyWp66T1cl25zVcLMp07-40">
          <mxGeometry x="700" y="15" width="180" height="30" as="geometry" />
        </mxCell>
        <mxCell id="KyWp66T1cl25zVcLMp07-92" value="" style="dashed=0;outlineConnect=0;html=1;align=center;labelPosition=center;verticalLabelPosition=bottom;verticalAlign=top;shape=mxgraph.weblogos.xanga;fillColor=#000000;strokeColor=none" vertex="1" parent="KyWp66T1cl25zVcLMp07-40">
          <mxGeometry x="20" y="11" width="130" height="38" as="geometry" />
        </mxCell>
        <mxCell id="KyWp66T1cl25zVcLMp07-47" value="" style="verticalLabelPosition=bottom;shadow=0;dashed=0;align=center;html=1;verticalAlign=top;strokeWidth=1;shape=mxgraph.mockup.graphics.simpleIcon;strokeColor=#9C9C9C;fillColor=default;perimeterSpacing=0;" vertex="1" parent="KyWp66T1cl25zVcLMp07-31">
          <mxGeometry x="20" y="260" width="870" height="210" as="geometry" />
        </mxCell>
        <mxCell id="KyWp66T1cl25zVcLMp07-94" value="&lt;b style=&quot;border-color: var(--border-color); color: rgb(108, 118, 125);&quot;&gt;&lt;font style=&quot;border-color: var(--border-color); font-size: 30px;&quot;&gt;Gusta la comodità a domicilio&lt;/font&gt;&lt;br style=&quot;border-color: var(--border-color);&quot;&gt;&lt;/b&gt;Ordina online dai tuoi ristoranti preferiti con un semplice click.🍔" style="html=1;shadow=0;dashed=0;shape=mxgraph.bootstrap.rrect;rSize=5;strokeColor=#DFDFDF;html=1;whiteSpace=wrap;fillColor=#ffffff;fontColor=#000000;verticalAlign=top;align=left;spacing=20;fontSize=14;" vertex="1" parent="KyWp66T1cl25zVcLMp07-31">
          <mxGeometry x="210" y="350" width="471.25" height="260" as="geometry" />
        </mxCell>
        <mxCell id="KyWp66T1cl25zVcLMp07-2" value="Indirizzo di consegna" style="strokeWidth=1;shadow=0;dashed=0;align=center;html=1;shape=mxgraph.mockup.forms.searchBox;strokeColor=#999999;mainText=;strokeColor2=#008cff;fontColor=#666666;fontSize=17;align=left;spacingLeft=3;whiteSpace=wrap;" vertex="1" parent="KyWp66T1cl25zVcLMp07-94">
          <mxGeometry x="62.29166666666666" y="140" width="346.6666666666666" height="82.11" as="geometry" />
        </mxCell>
        <mxCell id="KyWp66T1cl25zVcLMp07-97" value="&lt;span style=&quot;font-size: 20px;&quot;&gt;&lt;b&gt;Immagine pizza&lt;/b&gt;&lt;/span&gt;" style="html=1;shadow=0;dashed=0;shape=mxgraph.bootstrap.rrect;rSize=5;strokeColor=#d79b00;html=1;whiteSpace=wrap;fillColor=#ffe6cc;verticalAlign=bottom;align=left;spacing=20;spacingBottom=0;fontSize=14;" vertex="1" parent="KyWp66T1cl25zVcLMp07-31">
          <mxGeometry x="20" y="690" width="160" height="130" as="geometry" />
        </mxCell>
        <mxCell id="KyWp66T1cl25zVcLMp07-98" value="&lt;font color=&quot;#000000&quot;&gt;Pizza&lt;/font&gt;" style="html=1;shadow=0;dashed=0;shape=mxgraph.bootstrap.topButton;rSize=5;perimeter=none;whiteSpace=wrap;fillColor=#FFB570;strokeColor=#188C9C;fontColor=#ffffff;resizeWidth=1;fontSize=18;align=left;spacing=20;" vertex="1" parent="KyWp66T1cl25zVcLMp07-97">
          <mxGeometry width="160" height="50" relative="1" as="geometry" />
        </mxCell>
        <mxCell id="KyWp66T1cl25zVcLMp07-104" value="&lt;span style=&quot;font-size: 20px;&quot;&gt;&lt;b&gt;Immagine sushi&lt;/b&gt;&lt;/span&gt;" style="html=1;shadow=0;dashed=0;shape=mxgraph.bootstrap.rrect;rSize=5;strokeColor=#d79b00;html=1;whiteSpace=wrap;fillColor=#ffe6cc;verticalAlign=bottom;align=left;spacing=20;spacingBottom=0;fontSize=14;" vertex="1" parent="KyWp66T1cl25zVcLMp07-31">
          <mxGeometry x="210" y="690" width="160" height="130" as="geometry" />
        </mxCell>
        <mxCell id="KyWp66T1cl25zVcLMp07-105" value="&lt;font color=&quot;#000000&quot;&gt;Sushi&lt;/font&gt;" style="html=1;shadow=0;dashed=0;shape=mxgraph.bootstrap.topButton;rSize=5;perimeter=none;whiteSpace=wrap;fillColor=#FFB570;strokeColor=#188C9C;fontColor=#ffffff;resizeWidth=1;fontSize=18;align=left;spacing=20;" vertex="1" parent="KyWp66T1cl25zVcLMp07-104">
          <mxGeometry width="160" height="50" relative="1" as="geometry" />
        </mxCell>
        <mxCell id="KyWp66T1cl25zVcLMp07-102" value="&lt;span style=&quot;font-size: 20px;&quot;&gt;&lt;b&gt;Immagine hamburger&lt;/b&gt;&lt;/span&gt;" style="html=1;shadow=0;dashed=0;shape=mxgraph.bootstrap.rrect;rSize=5;strokeColor=#d79b00;html=1;whiteSpace=wrap;fillColor=#ffe6cc;verticalAlign=bottom;align=left;spacing=20;spacingBottom=0;fontSize=14;" vertex="1" parent="KyWp66T1cl25zVcLMp07-31">
          <mxGeometry x="400" y="690" width="160" height="130" as="geometry" />
        </mxCell>
        <mxCell id="KyWp66T1cl25zVcLMp07-103" value="&lt;font color=&quot;#000000&quot;&gt;Hamburger&lt;/font&gt;" style="html=1;shadow=0;dashed=0;shape=mxgraph.bootstrap.topButton;rSize=5;perimeter=none;whiteSpace=wrap;fillColor=#FFB570;strokeColor=#188C9C;fontColor=#ffffff;resizeWidth=1;fontSize=18;align=left;spacing=20;" vertex="1" parent="KyWp66T1cl25zVcLMp07-102">
          <mxGeometry width="160" height="50" relative="1" as="geometry" />
        </mxCell>
        <mxCell id="KyWp66T1cl25zVcLMp07-106" value="&lt;b style=&quot;border-color: var(--border-color);&quot;&gt;&lt;font style=&quot;font-size: 24px;&quot;&gt;I piatti più gustosi&lt;/font&gt;&lt;br style=&quot;border-color: var(--border-color);&quot;&gt;&lt;/b&gt;Trova i piatti più gustosi dai ristoranti della tua zona e ordina a domicilio." style="text;html=1;strokeColor=none;fillColor=none;align=left;verticalAlign=middle;whiteSpace=wrap;rounded=0;" vertex="1" parent="KyWp66T1cl25zVcLMp07-31">
          <mxGeometry x="20" y="610" width="440" height="70" as="geometry" />
        </mxCell>
        <mxCell id="KyWp66T1cl25zVcLMp07-107" value="&lt;span style=&quot;font-size: 20px;&quot;&gt;&lt;b&gt;Immagine panino&lt;/b&gt;&lt;/span&gt;" style="html=1;shadow=0;dashed=0;shape=mxgraph.bootstrap.rrect;rSize=5;strokeColor=#d79b00;html=1;whiteSpace=wrap;fillColor=#ffe6cc;verticalAlign=bottom;align=left;spacing=20;spacingBottom=0;fontSize=14;" vertex="1" parent="KyWp66T1cl25zVcLMp07-31">
          <mxGeometry x="590" y="690" width="160" height="130" as="geometry" />
        </mxCell>
        <mxCell id="KyWp66T1cl25zVcLMp07-108" value="&lt;font color=&quot;#000000&quot;&gt;Panini&lt;/font&gt;" style="html=1;shadow=0;dashed=0;shape=mxgraph.bootstrap.topButton;rSize=5;perimeter=none;whiteSpace=wrap;fillColor=#FFB570;strokeColor=#188C9C;fontColor=#ffffff;resizeWidth=1;fontSize=18;align=left;spacing=20;" vertex="1" parent="KyWp66T1cl25zVcLMp07-107">
          <mxGeometry width="160" height="50" relative="1" as="geometry" />
        </mxCell>
        <mxCell id="KyWp66T1cl25zVcLMp07-109" value="" style="verticalLabelPosition=bottom;verticalAlign=top;html=1;shadow=0;dashed=0;strokeWidth=1;shape=mxgraph.android.phone2;strokeColor=#c0c0c0;" vertex="1" parent="KyWp66T1cl25zVcLMp07-31">
          <mxGeometry x="120" y="1031" width="90" height="179" as="geometry" />
        </mxCell>
        <mxCell id="KyWp66T1cl25zVcLMp07-111" value="" style="verticalLabelPosition=bottom;verticalAlign=top;html=1;shadow=0;dashed=0;strokeWidth=1;shape=mxgraph.android.phone2;strokeColor=#c0c0c0;" vertex="1" parent="KyWp66T1cl25zVcLMp07-31">
          <mxGeometry x="150" y="1020" width="90" height="179" as="geometry" />
        </mxCell>
        <mxCell id="KyWp66T1cl25zVcLMp07-112" value="&lt;span style=&quot;font-size: 24px;&quot;&gt;&lt;b&gt;Gusta la comodità a domicilio&lt;br&gt;&lt;/b&gt;&lt;/span&gt;Scarica l&#39;app di Just Eat e ordina dove vuoi, qualunque cosa desideri." style="text;html=1;strokeColor=none;fillColor=none;align=left;verticalAlign=middle;whiteSpace=wrap;rounded=0;" vertex="1" parent="KyWp66T1cl25zVcLMp07-31">
          <mxGeometry x="320" y="1031" width="440" height="70" as="geometry" />
        </mxCell>
        <mxCell id="KyWp66T1cl25zVcLMp07-113" value="" style="dashed=0;outlineConnect=0;html=1;align=center;labelPosition=center;verticalLabelPosition=bottom;verticalAlign=top;shape=mxgraph.weblogos.app_store;fillColor=#000000;strokeColor=none" vertex="1" parent="KyWp66T1cl25zVcLMp07-31">
          <mxGeometry x="400" y="1105.75" width="90" height="29.5" as="geometry" />
        </mxCell>
        <mxCell id="KyWp66T1cl25zVcLMp07-115" value="" style="dashed=0;outlineConnect=0;html=1;align=center;labelPosition=center;verticalLabelPosition=bottom;verticalAlign=top;shape=mxgraph.webicons.google_play_light;" vertex="1" parent="KyWp66T1cl25zVcLMp07-31">
          <mxGeometry x="520" y="1105.25" width="80" height="30" as="geometry" />
        </mxCell>
        <mxCell id="xIt8Uq5XgzsXdQ8LZf2V-1" value="&lt;b&gt;Servizio Clienti&lt;/b&gt;&lt;br&gt;Domande frequenti&lt;br&gt;Accedi&lt;br&gt;Registrati su FoodDelivery&lt;br&gt;Miglior Prezzo Garantito" style="text;spacingTop=-5;whiteSpace=wrap;html=1;align=left;fontSize=12;fontFamily=Helvetica;fillColor=#f5f5f5;strokeColor=#666666;fontColor=#333333;" vertex="1" parent="KyWp66T1cl25zVcLMp07-31">
          <mxGeometry x="70" y="1270" width="150" height="210" as="geometry" />
        </mxCell>
        <mxCell id="xIt8Uq5XgzsXdQ8LZf2V-2" value="&lt;b&gt;Cucine&lt;/b&gt;&lt;br&gt;Domande frequenti&lt;br&gt;Accedi&lt;br&gt;Registrati su FoodDelivery&lt;br&gt;Miglior Prezzo Garantito" style="text;spacingTop=-5;whiteSpace=wrap;html=1;align=left;fontSize=12;fontFamily=Helvetica;fillColor=#f5f5f5;strokeColor=#666666;fontColor=#333333;" vertex="1" parent="KyWp66T1cl25zVcLMp07-31">
          <mxGeometry x="220" y="1270" width="150" height="210" as="geometry" />
        </mxCell>
        <mxCell id="xIt8Uq5XgzsXdQ8LZf2V-3" value="&lt;b&gt;Città&lt;/b&gt;&lt;br&gt;Domande frequenti&lt;br&gt;Accedi&lt;br&gt;Registrati su FoodDelivery&lt;br&gt;Miglior Prezzo Garantito" style="text;spacingTop=-5;whiteSpace=wrap;html=1;align=left;fontSize=12;fontFamily=Helvetica;fillColor=#f5f5f5;strokeColor=#666666;fontColor=#333333;" vertex="1" parent="KyWp66T1cl25zVcLMp07-31">
          <mxGeometry x="370.63" y="1270" width="150" height="210" as="geometry" />
        </mxCell>
        <mxCell id="xIt8Uq5XgzsXdQ8LZf2V-4" value="&lt;b&gt;Catene&lt;/b&gt;&lt;br&gt;Domande frequenti&lt;br&gt;Accedi&lt;br&gt;Registrati su FoodDelivery&lt;br&gt;Miglior Prezzo Garantito" style="text;spacingTop=-5;whiteSpace=wrap;html=1;align=left;fontSize=12;fontFamily=Helvetica;fillColor=#f5f5f5;strokeColor=#666666;fontColor=#333333;" vertex="1" parent="KyWp66T1cl25zVcLMp07-31">
          <mxGeometry x="520.63" y="1270" width="150" height="210" as="geometry" />
        </mxCell>
        <mxCell id="xIt8Uq5XgzsXdQ8LZf2V-5" value="&lt;b&gt;Chi siamo&lt;/b&gt;&lt;br&gt;Domande frequenti&lt;br&gt;Accedi&lt;br&gt;Registrati su FoodDelivery&lt;br&gt;Miglior Prezzo Garantito" style="text;spacingTop=-5;whiteSpace=wrap;html=1;align=left;fontSize=12;fontFamily=Helvetica;fillColor=#f5f5f5;strokeColor=#666666;fontColor=#333333;" vertex="1" parent="KyWp66T1cl25zVcLMp07-31">
          <mxGeometry x="670.63" y="1270" width="150" height="210" as="geometry" />
        </mxCell>
        <mxCell id="KyWp66T1cl25zVcLMp07-89" value="Click" style="strokeWidth=1;shadow=0;dashed=0;align=center;html=1;shape=mxgraph.mockup.text.callout;linkText=;textSize=17;textColor=#666666;callDir=SW;callStyle=line;fontSize=17;fontColor=#666666;align=left;verticalAlign=bottom;strokeColor=#666666;" vertex="1" parent="1">
          <mxGeometry x="910" y="240" width="200" height="100" as="geometry" />
        </mxCell>
        <mxCell id="xIt8Uq5XgzsXdQ8LZf2V-7" value="" style="strokeWidth=1;shadow=0;dashed=0;align=center;html=1;shape=mxgraph.mockup.containers.browserWindow;rSize=0;strokeColor=#666666;strokeColor2=#008cff;strokeColor3=#c4c4c4;mainText=,;recursiveResize=0;" vertex="1" parent="1">
          <mxGeometry x="1110" y="1010" width="900" height="800" as="geometry" />
        </mxCell>
        <mxCell id="xIt8Uq5XgzsXdQ8LZf2V-8" value="Page 1" style="strokeWidth=1;shadow=0;dashed=0;align=center;html=1;shape=mxgraph.mockup.containers.anchor;fontSize=17;fontColor=#666666;align=left;whiteSpace=wrap;" vertex="1" parent="xIt8Uq5XgzsXdQ8LZf2V-7">
          <mxGeometry x="60" y="12" width="110" height="26" as="geometry" />
        </mxCell>
        <mxCell id="xIt8Uq5XgzsXdQ8LZf2V-9" value="https://www.foodexpress.it/account/login" style="strokeWidth=1;shadow=0;dashed=0;align=center;html=1;shape=mxgraph.mockup.containers.anchor;rSize=0;fontSize=17;fontColor=#666666;align=left;" vertex="1" parent="xIt8Uq5XgzsXdQ8LZf2V-7">
          <mxGeometry x="130" y="60" width="250" height="26" as="geometry" />
        </mxCell>
        <mxCell id="xIt8Uq5XgzsXdQ8LZf2V-10" value="" style="html=1;shadow=0;dashed=0;fillColor=#F8F9FA;strokeColor=none;fontSize=16;fontColor=#7C7C7D;align=right;spacing=15;" vertex="1" parent="xIt8Uq5XgzsXdQ8LZf2V-7">
          <mxGeometry y="110" width="900" height="60" as="geometry" />
        </mxCell>
        <mxCell id="xIt8Uq5XgzsXdQ8LZf2V-11" value="" style="verticalLabelPosition=bottom;shadow=0;dashed=0;align=center;html=1;verticalAlign=top;strokeWidth=1;shape=mxgraph.mockup.graphics.simpleIcon;strokeColor=#999999;" vertex="1" parent="xIt8Uq5XgzsXdQ8LZf2V-10">
          <mxGeometry x="9.999999999999998" y="5" width="159.99999999999997" height="50" as="geometry" />
        </mxCell>
        <mxCell id="xIt8Uq5XgzsXdQ8LZf2V-12" value="Nome utente" style="strokeWidth=1;shadow=0;dashed=0;align=center;html=1;shape=mxgraph.mockup.buttons.button;strokeColor=#666666;fontColor=#ffffff;mainText=;buttonStyle=round;fontSize=17;fontStyle=1;fillColor=#FFB570;whiteSpace=wrap;" vertex="1" parent="xIt8Uq5XgzsXdQ8LZf2V-10">
          <mxGeometry x="590" y="15" width="180" height="30" as="geometry" />
        </mxCell>
        <mxCell id="xIt8Uq5XgzsXdQ8LZf2V-13" value="Aiuto ?" style="strokeWidth=1;shadow=0;dashed=0;align=center;html=1;shape=mxgraph.mockup.buttons.button;strokeColor=#666666;fontColor=#333333;mainText=;buttonStyle=round;fontSize=17;fontStyle=1;fillColor=#f5f5f5;whiteSpace=wrap;" vertex="1" parent="xIt8Uq5XgzsXdQ8LZf2V-10">
          <mxGeometry x="780" y="15" width="110" height="30" as="geometry" />
        </mxCell>
        <mxCell id="xIt8Uq5XgzsXdQ8LZf2V-51" value="" style="verticalLabelPosition=bottom;shadow=0;dashed=0;align=center;html=1;verticalAlign=top;strokeWidth=1;shape=mxgraph.mockup.misc.shoppingCart;strokeColor=#999999;" vertex="1" parent="xIt8Uq5XgzsXdQ8LZf2V-10">
          <mxGeometry x="531" y="10" width="39" height="40" as="geometry" />
        </mxCell>
        <mxCell id="xIt8Uq5XgzsXdQ8LZf2V-29" value="&lt;span style=&quot;font-size: 20px;&quot;&gt;&lt;b&gt;Immagine spesa&lt;/b&gt;&lt;/span&gt;" style="html=1;shadow=0;dashed=0;shape=mxgraph.bootstrap.rrect;rSize=5;strokeColor=#d79b00;html=1;whiteSpace=wrap;fillColor=#ffe6cc;verticalAlign=bottom;align=left;spacing=20;spacingBottom=0;fontSize=14;" vertex="1" parent="xIt8Uq5XgzsXdQ8LZf2V-7">
          <mxGeometry x="32.5" y="180" width="115" height="90" as="geometry" />
        </mxCell>
        <mxCell id="xIt8Uq5XgzsXdQ8LZf2V-30" value="&lt;font color=&quot;#000000&quot;&gt;Spesa&lt;/font&gt;" style="html=1;shadow=0;dashed=0;shape=mxgraph.bootstrap.topButton;rSize=5;perimeter=none;whiteSpace=wrap;fillColor=#FFB570;strokeColor=#188C9C;fontColor=#ffffff;resizeWidth=1;fontSize=18;align=left;spacing=20;" vertex="1" parent="xIt8Uq5XgzsXdQ8LZf2V-29">
          <mxGeometry width="115" height="20" relative="1" as="geometry" />
        </mxCell>
        <mxCell id="xIt8Uq5XgzsXdQ8LZf2V-43" value="&lt;span style=&quot;font-size: 20px;&quot;&gt;&lt;b&gt;Immagine hamburger&lt;/b&gt;&lt;/span&gt;" style="html=1;shadow=0;dashed=0;shape=mxgraph.bootstrap.rrect;rSize=5;strokeColor=#d79b00;html=1;whiteSpace=wrap;fillColor=#ffe6cc;verticalAlign=bottom;align=left;spacing=20;spacingBottom=0;fontSize=14;" vertex="1" parent="xIt8Uq5XgzsXdQ8LZf2V-7">
          <mxGeometry x="310" y="180" width="115" height="90" as="geometry" />
        </mxCell>
        <mxCell id="xIt8Uq5XgzsXdQ8LZf2V-44" value="&lt;font color=&quot;#000000&quot;&gt;Hamburger&lt;/font&gt;" style="html=1;shadow=0;dashed=0;shape=mxgraph.bootstrap.topButton;rSize=5;perimeter=none;whiteSpace=wrap;fillColor=#FFB570;strokeColor=#188C9C;fontColor=#ffffff;resizeWidth=1;fontSize=18;align=left;spacing=20;" vertex="1" parent="xIt8Uq5XgzsXdQ8LZf2V-43">
          <mxGeometry width="115" height="20" relative="1" as="geometry" />
        </mxCell>
        <mxCell id="xIt8Uq5XgzsXdQ8LZf2V-41" value="&lt;span style=&quot;font-size: 20px;&quot;&gt;&lt;b&gt;Immagine italiano&lt;/b&gt;&lt;/span&gt;" style="html=1;shadow=0;dashed=0;shape=mxgraph.bootstrap.rrect;rSize=5;strokeColor=#d79b00;html=1;whiteSpace=wrap;fillColor=#ffe6cc;verticalAlign=bottom;align=left;spacing=20;spacingBottom=0;fontSize=14;" vertex="1" parent="xIt8Uq5XgzsXdQ8LZf2V-7">
          <mxGeometry x="450" y="180" width="115" height="90" as="geometry" />
        </mxCell>
        <mxCell id="xIt8Uq5XgzsXdQ8LZf2V-42" value="&lt;font color=&quot;#000000&quot;&gt;Italiano&lt;/font&gt;" style="html=1;shadow=0;dashed=0;shape=mxgraph.bootstrap.topButton;rSize=5;perimeter=none;whiteSpace=wrap;fillColor=#FFB570;strokeColor=#188C9C;fontColor=#ffffff;resizeWidth=1;fontSize=18;align=left;spacing=20;" vertex="1" parent="xIt8Uq5XgzsXdQ8LZf2V-41">
          <mxGeometry width="115" height="20" relative="1" as="geometry" />
        </mxCell>
        <mxCell id="xIt8Uq5XgzsXdQ8LZf2V-37" value="&lt;span style=&quot;font-size: 20px;&quot;&gt;&lt;b&gt;Immagine panino&lt;/b&gt;&lt;/span&gt;" style="html=1;shadow=0;dashed=0;shape=mxgraph.bootstrap.rrect;rSize=5;strokeColor=#d79b00;html=1;whiteSpace=wrap;fillColor=#ffe6cc;verticalAlign=bottom;align=left;spacing=20;spacingBottom=0;fontSize=14;" vertex="1" parent="xIt8Uq5XgzsXdQ8LZf2V-7">
          <mxGeometry x="590" y="180" width="115" height="90" as="geometry" />
        </mxCell>
        <mxCell id="xIt8Uq5XgzsXdQ8LZf2V-38" value="&lt;font color=&quot;#000000&quot;&gt;Panini&lt;/font&gt;" style="html=1;shadow=0;dashed=0;shape=mxgraph.bootstrap.topButton;rSize=5;perimeter=none;whiteSpace=wrap;fillColor=#FFB570;strokeColor=#188C9C;fontColor=#ffffff;resizeWidth=1;fontSize=18;align=left;spacing=20;" vertex="1" parent="xIt8Uq5XgzsXdQ8LZf2V-37">
          <mxGeometry width="115" height="20" relative="1" as="geometry" />
        </mxCell>
        <mxCell id="xIt8Uq5XgzsXdQ8LZf2V-39" value="&lt;span style=&quot;font-size: 20px;&quot;&gt;&lt;b&gt;Immagine pizza&lt;/b&gt;&lt;/span&gt;" style="html=1;shadow=0;dashed=0;shape=mxgraph.bootstrap.rrect;rSize=5;strokeColor=#d79b00;html=1;whiteSpace=wrap;fillColor=#ffe6cc;verticalAlign=bottom;align=left;spacing=20;spacingBottom=0;fontSize=14;" vertex="1" parent="xIt8Uq5XgzsXdQ8LZf2V-7">
          <mxGeometry x="170" y="180" width="115" height="90" as="geometry" />
        </mxCell>
        <mxCell id="xIt8Uq5XgzsXdQ8LZf2V-40" value="&lt;font color=&quot;#000000&quot;&gt;Pizza&lt;/font&gt;" style="html=1;shadow=0;dashed=0;shape=mxgraph.bootstrap.topButton;rSize=5;perimeter=none;whiteSpace=wrap;fillColor=#FFB570;strokeColor=#188C9C;fontColor=#ffffff;resizeWidth=1;fontSize=18;align=left;spacing=20;" vertex="1" parent="xIt8Uq5XgzsXdQ8LZf2V-39">
          <mxGeometry width="115" height="20" relative="1" as="geometry" />
        </mxCell>
        <mxCell id="xIt8Uq5XgzsXdQ8LZf2V-45" value="Indirizzo di consegna" style="strokeWidth=1;shadow=0;dashed=0;align=center;html=1;shape=mxgraph.mockup.forms.searchBox;strokeColor=#999999;mainText=;strokeColor2=#008cff;fontColor=#666666;fontSize=17;align=left;spacingLeft=3;whiteSpace=wrap;" vertex="1" parent="xIt8Uq5XgzsXdQ8LZf2V-7">
          <mxGeometry x="218.33" y="300" width="581.67" height="82.11" as="geometry" />
        </mxCell>
        <mxCell id="xIt8Uq5XgzsXdQ8LZf2V-46" value="&lt;span style=&quot;font-weight: normal;&quot;&gt;Indirizzo inserito&lt;/span&gt;&lt;br&gt;&lt;br&gt;&lt;u&gt;Cambia zona&lt;/u&gt;" style="strokeWidth=1;shadow=0;dashed=0;align=center;html=1;shape=mxgraph.mockup.buttons.button;strokeColor=#666666;fontColor=#333333;mainText=;buttonStyle=round;fontSize=17;fontStyle=1;fillColor=#f5f5f5;whiteSpace=wrap;" vertex="1" parent="xIt8Uq5XgzsXdQ8LZf2V-7">
          <mxGeometry x="32.5" y="289.08" width="147.5" height="103.94" as="geometry" />
        </mxCell>
        <mxCell id="xIt8Uq5XgzsXdQ8LZf2V-48" value="&lt;b style=&quot;&quot;&gt;&lt;font style=&quot;font-size: 18px;&quot;&gt;Filtri categorie&lt;/font&gt;&lt;/b&gt;" style="text;html=1;strokeColor=none;fillColor=none;align=left;verticalAlign=middle;whiteSpace=wrap;rounded=0;" vertex="1" parent="xIt8Uq5XgzsXdQ8LZf2V-7">
          <mxGeometry x="32.5" y="410" width="137.5" height="70" as="geometry" />
        </mxCell>
        <mxCell id="xIt8Uq5XgzsXdQ8LZf2V-49" value="&lt;span style=&quot;font-weight: 400;&quot;&gt;Alimentari&lt;span style=&quot;white-space: pre;&quot;&gt;&#x9;&lt;/span&gt;1&lt;/span&gt;" style="strokeWidth=1;shadow=0;dashed=0;align=center;html=1;shape=mxgraph.mockup.buttons.button;strokeColor=#666666;fontColor=#333333;mainText=;buttonStyle=round;fontSize=17;fontStyle=1;fillColor=#f5f5f5;whiteSpace=wrap;" vertex="1" parent="xIt8Uq5XgzsXdQ8LZf2V-7">
          <mxGeometry x="27.5" y="460" width="147.5" height="50" as="geometry" />
        </mxCell>
        <mxCell id="xIt8Uq5XgzsXdQ8LZf2V-50" value="&lt;span style=&quot;font-weight: 400;&quot;&gt;Americano&lt;span style=&quot;white-space: pre;&quot;&gt;&#x9;&lt;/span&gt;4&lt;/span&gt;" style="strokeWidth=1;shadow=0;dashed=0;align=center;html=1;shape=mxgraph.mockup.buttons.button;strokeColor=#666666;fontColor=#333333;mainText=;buttonStyle=round;fontSize=17;fontStyle=1;fillColor=#f5f5f5;whiteSpace=wrap;" vertex="1" parent="xIt8Uq5XgzsXdQ8LZf2V-7">
          <mxGeometry x="27.5" y="530" width="147.5" height="50" as="geometry" />
        </mxCell>
        <mxCell id="xIt8Uq5XgzsXdQ8LZf2V-47" value="Inserisce indirizzo e preme invio" style="strokeWidth=1;shadow=0;dashed=0;align=center;html=1;shape=mxgraph.mockup.text.callout;linkText=;textSize=17;textColor=#666666;callDir=NW;callStyle=line;fontSize=17;fontColor=#666666;align=left;verticalAlign=top;strokeColor=#666666;" vertex="1" parent="1">
          <mxGeometry x="650" y="710" width="460" height="600" as="geometry" />
        </mxCell>
      </root>
    </mxGraphModel>
  </diagram>
</mxfile>
